HIERARCHY
ROOT Hips
{
	OFFSET 0.000000 88.474243 0.000000
	CHANNELS 6 Xposition Yposition Zposition Zrotation Yrotation Xrotation 
	JOINT Hips_Spine
	{
		OFFSET 0.000000 0.000000 0.000000
		CHANNELS 3 Zrotation Yrotation Xrotation
		JOINT Spine
		{
			OFFSET 0.005100 8.711998 -0.691000
			CHANNELS 3 Zrotation Yrotation Xrotation
			JOINT Spine1
			{
				OFFSET -0.009200 8.660301 -1.275000
				CHANNELS 3 Zrotation Yrotation Xrotation
				JOINT Spine2
				{
					OFFSET 0.006300 9.852501 -1.857000
					CHANNELS 3 Zrotation Yrotation Xrotation
					JOINT Spine2_Neck
					{
						OFFSET 0.000000 0.000000 0.000000
						CHANNELS 3 Zrotation Yrotation Xrotation
						JOINT Neck
						{
							OFFSET 0.016300 11.420799 -0.263300
							CHANNELS 3 Zrotation Yrotation Xrotation
							End Site #name: Head
							{
								OFFSET -0.019200 9.262405 2.362500
							}
						}
					}
					JOINT Spine2_LeftShoulder
					{
						OFFSET 0.000000 0.000000 0.000000
						CHANNELS 3 Zrotation Yrotation Xrotation
						JOINT LeftShoulder
						{
							OFFSET 5.616900 6.732201 -0.345700
							CHANNELS 3 Zrotation Yrotation Xrotation
							JOINT LeftArm
							{
								OFFSET 10.664888 -0.183372 -2.440700
								CHANNELS 3 Zrotation Yrotation Xrotation
								JOINT LeftForeArm
								{
									OFFSET 27.459126 0.000000 0.000000
									CHANNELS 3 Zrotation Yrotation Xrotation
									End Site #name: LeftHand
									{
										OFFSET 21.306858 0.000000 0.000000
									}
								}
							}
						}
					}
					JOINT Spine2_RightShoulder
					{
						OFFSET 0.000000 0.000000 0.000000
						CHANNELS 3 Zrotation Yrotation Xrotation
						JOINT RightShoulder
						{
							OFFSET -5.580300 6.737503 -0.344400
							CHANNELS 3 Zrotation Yrotation Xrotation
							JOINT RightArm
							{
								OFFSET -10.679335 -0.188484 -2.383900
								CHANNELS 3 Zrotation Yrotation Xrotation
								JOINT RightForeArm
								{
									OFFSET -27.503529 0.000000 0.000000
									CHANNELS 3 Zrotation Yrotation Xrotation
									End Site #name: RightHand
									{
										OFFSET -21.306808 0.000000 0.000000
									}
								}
							}
						}
					}
				}
			}
		}
	}
	JOINT Hips_LeftUpLeg
	{
		OFFSET 0.000000 0.000000 0.000000
		CHANNELS 3 Zrotation Yrotation Xrotation
		JOINT LeftUpLeg
		{
			OFFSET 6.857700 -6.739601 0.312100
			CHANNELS 3 Zrotation Yrotation Xrotation
			JOINT LeftLeg
			{
				OFFSET -0.367590 -34.731552 -4.572400
				CHANNELS 3 Zrotation Yrotation Xrotation
				End Site #name: LeftFoot
				{
					OFFSET 0.367590 -34.656704 -6.067400
				}
			}
		}
	}
	JOINT Hips_RightUpLeg
	{
		OFFSET 0.000000 0.000000 0.000000
		CHANNELS 3 Zrotation Yrotation Xrotation
		JOINT RightUpLeg
		{
			OFFSET -6.876100 -6.733299 0.301000
			CHANNELS 3 Zrotation Yrotation Xrotation
			JOINT RightLeg
			{
				OFFSET 0.347353 -34.795158 -4.515900
				CHANNELS 3 Zrotation Yrotation Xrotation
				End Site #name: RightFoot
				{
					OFFSET -0.347353 -34.589367 -6.070300
				}
			}
		}
	}
}
MOTION
Frames: 11
Frame Time: 0.041667
-0.206871 0.348543 -1.325497 -4.096438 2.481484 -1.705366 0.000000 0.000000 0.000000 3.163363 -0.936545 20.474721 0.101813 0.419899 1.599934 0.000000 0.000000 0.000000 0.358653 0.367597 0.765146 1.364259 -0.465666 8.768016 0.335323 0.375412 1.257600 -5.069624 2.570639 -1.591812 -67.619299 -3.458339 18.293913 0.146187 -46.069270 0.689859 0.169493 0.439886 1.191693 4.028199 -8.927175 0.134748 72.590997 9.921439 3.585896 -179.978517 68.715627 179.900367 0.000000 0.000000 0.000000 7.191925 7.697911 -80.924036 4.965055 -4.141258 71.304167 0.000000 0.000000 -0.000000 -5.270463 -8.148481 -72.148893 -0.870791 0.273667 73.556210 
-0.218946 0.357727 -1.360531 -4.081552 2.473765 -1.699823 0.000000 0.000000 0.000000 3.168285 -0.921218 20.448309 0.108653 0.422738 1.608874 0.000000 0.000000 0.000000 0.366419 0.368503 0.777234 1.370130 -0.463782 8.760462 0.342329 0.375347 1.268219 -5.087663 2.504034 -1.584009 -67.608986 -3.504550 18.166452 0.147836 -45.822006 0.685799 0.174691 0.443960 1.209597 4.063178 -8.885112 0.131762 72.687879 9.985296 3.817749 -179.959965 69.240164 179.915388 -0.000000 0.000000 0.000000 7.188645 7.699740 -80.942920 4.969428 -4.140357 71.313121 0.000000 0.000000 -0.000000 -5.265018 -8.150292 -72.147313 -0.871541 0.274012 73.563588 
-0.230105 0.366407 -1.394943 -4.068057 2.465732 -1.693469 0.000000 0.000000 0.000000 3.173906 -0.902541 20.421355 0.116178 0.425967 1.618296 0.000000 0.000000 0.000000 0.374722 0.369241 0.790420 1.376942 -0.461493 8.748042 0.350528 0.375221 1.280869 -5.104294 2.430503 -1.573321 -67.581961 -3.554669 18.024385 0.148244 -45.521388 0.683220 0.181026 0.447362 1.229883 4.108992 -8.826452 0.129983 72.820040 10.083005 4.128782 -179.939805 69.823095 179.935668 -0.000000 0.000000 0.000000 7.185757 7.702122 -80.962010 4.974754 -4.139569 71.325112 0.000000 0.000000 -0.000000 -5.260217 -8.155619 -72.146680 -0.871464 0.273047 73.568102 
-0.240187 0.374757 -1.428725 -4.055524 2.459925 -1.687283 0.000000 0.000000 0.000000 3.181939 -0.882318 20.392276 0.124681 0.428793 1.629591 0.000000 0.000000 0.000000 0.384190 0.370110 0.805491 1.384408 -0.457235 8.730174 0.359394 0.375038 1.295100 -5.130899 2.337918 -1.560721 -67.554092 -3.633192 17.835018 0.149794 -45.139712 0.679694 0.187897 0.451344 1.252911 4.145115 -8.757316 0.129223 72.982974 10.201096 4.509284 -179.925220 70.798917 179.953668 -0.000000 0.000000 0.000000 7.181585 7.706356 -80.976477 4.982523 -4.139219 71.331970 0.000000 0.000000 -0.000000 -5.253494 -8.157004 -72.143228 -0.871673 0.272217 73.571334 
-0.249204 0.382806 -1.461977 -4.043016 2.451123 -1.679800 0.000000 0.000000 0.000000 3.192236 -0.862020 20.365587 0.134021 0.431721 1.640726 0.000000 0.000000 0.000000 0.394808 0.370942 0.820648 1.391493 -0.451986 8.711269 0.368855 0.374865 1.309228 -5.153381 2.231901 -1.543752 -67.529557 -3.716895 17.639199 0.150775 -44.652478 0.676479 0.195802 0.455759 1.277304 4.169765 -8.674002 0.130887 73.179022 10.340165 4.982531 -179.912049 72.051174 179.971061 -0.000000 0.000000 0.000000 7.179729 7.711064 -80.986615 4.991538 -4.137783 71.334309 -0.000000 0.000000 -0.000000 -5.249422 -8.159854 -72.138667 -0.873175 0.271069 73.572021 
-0.257076 0.390626 -1.494823 -4.032772 2.440597 -1.672623 0.000000 0.000000 0.000000 3.204270 -0.840724 20.339194 0.143755 0.433533 1.650551 0.000000 0.000000 0.000000 0.405799 0.371709 0.835485 1.398424 -0.447068 8.689360 0.379058 0.374250 1.325142 -5.184162 2.109356 -1.526010 -67.503185 -3.803207 17.466338 0.152668 -44.062665 0.672764 0.204088 0.459622 1.304240 4.203809 -8.575379 0.127443 73.333556 10.452566 5.438621 -179.906920 73.785100 179.980900 -0.000000 0.000000 0.000000 7.179312 7.716462 -80.994209 5.001816 -4.137079 71.334712 -0.000000 0.000000 -0.000000 -5.245275 -8.161583 -72.137565 -0.872532 0.270593 73.569636 
-0.263731 0.398199 -1.527294 -4.024887 2.432447 -1.666768 0.000000 0.000000 0.000000 3.218102 -0.820007 20.314311 0.153341 0.433409 1.656964 0.000000 0.000000 0.000000 0.416837 0.372204 0.850077 1.402420 -0.440453 8.661379 0.388270 0.373384 1.338953 -5.211887 1.978992 -1.504824 -67.480906 -3.879632 17.286570 0.155943 -43.409752 0.668575 0.212156 0.464268 1.331382 4.205816 -8.415087 0.084692 73.534431 10.574744 5.979094 -179.897742 75.778623 179.995078 -0.000000 0.000000 0.000000 7.178032 7.720988 -80.996040 5.013162 -4.134860 71.324670 -0.000000 0.000000 -0.000000 -5.241954 -8.160847 -72.133879 -0.871047 0.270663 73.568356 
-0.269160 0.405523 -1.559463 -4.017668 2.425033 -1.658923 0.000000 0.000000 0.000000 3.231765 -0.796903 20.311620 0.163091 0.433016 1.664815 0.000000 0.000000 0.000000 0.427885 0.371923 0.864453 1.405956 -0.432264 8.627029 0.397213 0.371689 1.353102 -5.241414 1.845548 -1.481961 -67.468327 -3.981297 17.091712 0.157018 -42.632072 0.665652 0.220112 0.468393 1.361077 4.205013 -8.238396 0.040201 73.734905 10.652735 6.545367 -179.895046 78.290377 -179.990838 -0.000000 0.000000 0.000000 7.174951 7.728541 -81.008833 5.024266 -4.130765 71.324541 -0.000000 0.000000 -0.000000 -5.236057 -8.162733 -72.131966 -0.870990 0.269612 73.566846 
-0.273336 0.412707 -1.591461 -4.012569 2.420528 -1.651341 0.000000 0.000000 0.000000 3.245163 -0.772261 20.303195 0.173141 0.431672 1.673701 0.000000 0.000000 0.000000 0.439660 0.371409 0.881746 1.406056 -0.424235 8.592479 0.406625 0.368815 1.369072 -5.269908 1.704045 -1.458606 -67.452549 -4.068662 16.898610 0.160092 -41.819681 0.661379 0.229786 0.473187 1.405604 4.219230 -8.064025 0.006657 73.964741 10.676686 7.366060 -179.890797 81.403016 -179.975264 -0.000000 0.000000 0.000000 7.172693 7.734249 -81.020526 5.037517 -4.127831 71.324556 -0.000000 0.000000 -0.000000 -5.230966 -8.163181 -72.133115 -0.872251 0.269409 73.566399 
-0.276234 0.419813 -1.623251 -4.008612 2.416694 -1.640651 0.000000 0.000000 0.000000 3.260451 -0.747019 20.295833 0.184691 0.430413 1.683827 0.000000 0.000000 0.000000 0.453099 0.370878 0.899395 1.405307 -0.412003 8.555812 0.417247 0.366403 1.385386 -5.305871 1.556661 -1.433127 -67.434293 -4.173466 16.702837 0.162228 -40.937329 0.657740 0.240804 0.478466 1.449865 4.278425 -7.926745 -0.029803 74.235771 10.838914 8.334519 -179.917526 84.800435 -179.982869 -0.000000 0.000000 0.000000 7.168509 7.742302 -81.035905 5.050209 -4.124011 71.327959 -0.000000 0.000000 -0.000000 -5.223446 -8.165060 -72.135918 -0.874536 0.268668 73.561878 
-0.277822 0.426987 -1.655040 -4.006222 2.413315 -1.627275 0.000000 0.000000 0.000000 3.278412 -0.719275 20.282667 0.197708 0.429261 1.693279 0.000000 0.000000 0.000000 0.468320 0.370864 0.917593 1.404750 -0.399430 8.516613 0.429381 0.364340 1.403256 -5.336383 1.405081 -1.404950 -67.412217 -4.269289 16.513284 0.165578 -40.040629 0.652687 0.252527 0.483712 1.496999 4.376492 -7.828696 -0.062200 74.575704 11.255381 9.356998 -179.907183 88.469371 -179.956307 -0.000000 0.000000 0.000000 7.165915 7.747884 -81.054806 5.066631 -4.119650 71.329964 -0.000000 0.000000 -0.000000 -5.216697 -8.165530 -72.138583 -0.875874 0.268749 73.558476 
